# This file uses centimeters as units for non-parametric coordinates.

mtllib fence.mtl
g default
v 0.101656 -0.002633 0.029394
v 0.290226 -0.002633 0.029394
v 0.101656 0.852571 0.029394
v 0.290226 0.852571 0.029394
v 0.101656 0.852571 -0.025756
v 0.290226 0.852571 -0.025756
v 0.101656 -0.002633 -0.025756
v 0.290226 -0.002633 -0.025756
v 0.192527 1.029291 -0.025756
v 0.192527 -0.002633 -0.025756
v 0.192527 -0.002633 0.029394
v 0.192527 1.029291 0.029394
v 0.192527 0.852572 0.029394
v 0.192527 0.852572 -0.025756
v 0.101656 0.706331 0.029394
v 0.101656 0.706331 -0.025756
v 0.192527 0.706331 -0.025756
v 0.290226 0.706331 -0.025756
v 0.290226 0.706331 0.029394
v 0.192527 0.706331 0.029394
v 0.101656 0.515779 0.029394
v 0.101656 0.515779 -0.025756
v 0.192527 0.515779 -0.025756
v 0.290226 0.515779 -0.025756
v 0.290226 0.515779 0.029394
v 0.192527 0.515779 0.029394
v 0.290226 0.706331 0.087281
v 0.192527 0.706331 0.087281
v 0.192527 0.515779 0.087281
v 0.290226 0.515779 0.087281
v 0.101656 0.515779 0.087281
v 0.101656 0.706331 0.087281
v -0.208848 -0.002633 0.029394
v -0.020278 -0.002633 0.029394
v -0.208848 0.852571 0.029394
v -0.020278 0.852571 0.029394
v -0.208848 0.852571 -0.025756
v -0.020278 0.852571 -0.025756
v -0.208848 -0.002633 -0.025756
v -0.020278 -0.002633 -0.025756
v -0.117977 1.029291 -0.025756
v -0.117977 -0.002633 -0.025756
v -0.117977 -0.002633 0.029394
v -0.117977 1.029291 0.029394
v -0.117977 0.852572 0.029394
v -0.117977 0.852572 -0.025756
v -0.208848 0.706331 0.029394
v -0.208848 0.706331 -0.025756
v -0.117977 0.706331 -0.025756
v -0.020278 0.706331 -0.025756
v -0.020278 0.706331 0.029394
v -0.117977 0.706331 0.029394
v -0.208848 0.515779 0.029394
v -0.208848 0.515779 -0.025756
v -0.117977 0.515779 -0.025756
v -0.020278 0.515779 -0.025756
v -0.020278 0.515779 0.029394
v -0.117977 0.515779 0.029394
v -0.020278 0.706331 0.087281
v -0.117977 0.706331 0.087281
v -0.117977 0.515779 0.087281
v -0.020278 0.515779 0.087281
v -0.208848 0.515779 0.087281
v -0.208848 0.706331 0.087281
v 0.412017 0.515779 0.029394
v 0.412017 0.706331 0.029394
v 0.412017 0.706331 0.087281
v 0.412017 0.515779 0.087281
vt 0.042241 0.628339
vt 0.042241 0.757768
vt 0.001850 0.757768
vt 0.001850 0.628339
vt 0.001850 0.521233
vt 0.042241 0.521233
vt 0.001850 0.381674
vt 0.042241 0.381674
vt 0.001850 0.001992
vt 0.042241 0.001992
vt 0.193858 0.001992
vt 0.234249 0.001992
vt 0.234249 0.381674
vt 0.193858 0.381674
vt 0.234249 0.521233
vt 0.193858 0.521233
vt 0.234249 0.628339
vt 0.193858 0.628339
vt 0.234249 0.757768
vt 0.193858 0.757768
vt 0.281301 0.628339
vt 0.281301 0.757768
vt 0.240910 0.757768
vt 0.240910 0.628339
vt 0.240910 0.521233
vt 0.281301 0.521233
vt 0.240910 0.381674
vt 0.281301 0.381674
vt 0.240910 0.001992
vt 0.281301 0.001992
vt 0.323697 0.381674
vt 0.323697 0.521233
vt 0.474359 0.001992
vt 0.514751 0.001992
vt 0.514751 0.381674
vt 0.474359 0.381674
vt 0.514751 0.521233
vt 0.474359 0.521233
vt 0.514751 0.628339
vt 0.474359 0.628339
vt 0.514751 0.757768
vt 0.474359 0.757768
vt 0.400281 0.761474
vt 0.400281 0.901033
vt 0.357885 0.901033
vt 0.357885 0.761474
vt 0.216901 0.899581
vt 0.216901 0.833028
vt 0.257293 0.833028
vt 0.257293 0.899581
vt 0.216901 0.761474
vt 0.257293 0.761474
vt 0.710392 0.091191
vt 0.710392 0.162745
vt 0.667996 0.162745
vt 0.667996 0.091191
vt 0.710392 0.229299
vt 0.667996 0.229299
vt 0.667996 0.001992
vt 0.710392 0.001992
vt 0.710392 0.318602
vt 0.667996 0.318602
vt 0.710392 0.390156
vt 0.667996 0.390156
vt 0.710392 0.456710
vt 0.667996 0.456710
vt 0.716858 0.162745
vt 0.716858 0.091191
vt 0.759253 0.091191
vt 0.759253 0.162745
vt 0.716858 0.001992
vt 0.759253 0.001992
vt 0.716858 0.229299
vt 0.759253 0.229299
vt 0.759253 0.318603
vt 0.716858 0.318603
vt 0.716858 0.390156
vt 0.759253 0.390156
vt 0.716858 0.456710
vt 0.759253 0.456710
vt 0.170812 0.899581
vt 0.170812 0.833027
vt 0.211204 0.833027
vt 0.211204 0.899581
vt 0.170812 0.761474
vt 0.211204 0.761474
vt 0.644783 0.567522
vt 0.711337 0.567523
vt 0.711337 0.696951
vt 0.644783 0.460416
vt 0.711337 0.460417
vt 0.782890 0.567522
vt 0.782890 0.460416
vt 0.049083 0.378085
vt 0.115636 0.378085
vt 0.115636 0.757767
vt 0.049083 0.757767
vt 0.049083 0.238526
vt 0.115636 0.238526
vt 0.187190 0.378085
vt 0.187190 0.757767
vt 0.049083 0.131420
vt 0.115636 0.131420
vt 0.187190 0.238526
vt 0.115636 0.001992
vt 0.187190 0.131420
vt 0.765719 0.001992
vt 0.832273 0.001992
vt 0.832273 0.381674
vt 0.765719 0.381674
vt 0.903827 0.381674
vt 0.903827 0.001992
vt 0.660970 0.091191
vt 0.660971 0.162745
vt 0.521411 0.162745
vt 0.521411 0.091191
vt 0.521411 0.229299
vt 0.660970 0.229299
vt 0.521411 0.001992
vt 0.660970 0.001992
vt 0.660970 0.318603
vt 0.521411 0.318603
vt 0.660971 0.390156
vt 0.521411 0.390156
vt 0.521411 0.456710
vt 0.660970 0.456710
vt 0.500978 0.868580
vt 0.567532 0.868580
vt 0.567532 0.998008
vt 0.500978 0.761474
vt 0.567532 0.761474
vt 0.639086 0.868580
vt 0.639086 0.761474
vt 0.329584 0.378085
vt 0.396138 0.378085
vt 0.396138 0.757767
vt 0.329584 0.757767
vt 0.329584 0.238526
vt 0.396138 0.238526
vt 0.467692 0.378085
vt 0.467692 0.757767
vt 0.329584 0.131420
vt 0.396138 0.131420
vt 0.467692 0.238526
vt 0.396138 0.001992
vt 0.467692 0.131420
vt 0.788587 0.385381
vt 0.855141 0.385381
vt 0.855141 0.765063
vt 0.788587 0.765063
vt 0.926695 0.765063
vt 0.926695 0.385381
vt 0.405978 0.901033
vt 0.405978 0.761474
vt 0.495282 0.761474
vt 0.495282 0.901033
vt 0.262989 0.901033
vt 0.262989 0.761474
vt 0.352188 0.761474
vt 0.352188 0.901033
vn -0.000000 0.000000 1.000000
vn -0.000000 0.000000 1.000000
vn 0.000000 0.000000 1.000000
vn -0.889314 0.457298 0.000000
vn 0.000000 1.000000 0.000000
vn 0.000000 1.000000 0.000000
vn -0.889314 0.457298 0.000000
vn 0.000000 0.000000 -1.000000
vn -0.000000 0.000000 -1.000000
vn -0.000000 0.000000 -1.000000
vn 0.000000 0.000000 -1.000000
vn 0.000000 -1.000000 0.000000
vn 0.000000 -1.000000 0.000000
vn 0.000000 -1.000000 0.000000
vn 0.000000 -1.000000 0.000000
vn 1.000000 0.000000 0.000000
vn 1.000000 0.000000 0.000000
vn 1.000000 0.000000 0.000000
vn 1.000000 0.000000 0.000000
vn -1.000000 0.000000 0.000000
vn -1.000000 0.000000 0.000000
vn -1.000000 0.000000 0.000000
vn -1.000000 0.000000 0.000000
vn -0.000000 0.000000 -1.000000
vn -0.000000 0.000000 -1.000000
vn 0.000000 -1.000000 0.000000
vn 0.000000 -1.000000 0.000000
vn 0.000000 0.000000 1.000000
vn 0.875162 0.483829 0.000000
vn 0.875162 0.483829 0.000000
vn 0.000000 0.000000 1.000000
vn 0.000000 0.000000 1.000000
vn 0.000000 0.000000 1.000000
vn 0.000000 0.000000 1.000000
vn 0.000000 0.000000 1.000000
vn 0.000000 0.000000 1.000000
vn 0.000000 0.000000 -1.000000
vn 0.000000 0.000000 -1.000000
vn 0.000000 0.000000 -1.000000
vn 0.000000 0.000000 -1.000000
vn -1.000000 0.000000 0.000000
vn -1.000000 0.000000 0.000000
vn -1.000000 0.000000 0.000000
vn -1.000000 0.000000 0.000000
vn -0.000000 0.000000 -1.000000
vn 0.000000 0.000000 -1.000000
vn -0.000000 0.000000 -1.000000
vn 1.000000 0.000000 0.000000
vn 1.000000 0.000000 0.000000
vn 1.000000 0.000000 0.000000
vn 1.000000 0.000000 0.000000
vn 0.000000 0.000000 1.000000
vn 0.000000 0.000000 1.000000
vn 0.000000 0.000000 1.000000
vn -0.000000 0.000000 1.000000
vn -0.000000 0.000000 1.000000
vn -0.000000 0.000000 1.000000
vn -0.000000 0.000000 1.000000
vn 0.000000 0.000000 1.000000
vn 0.000000 0.000000 1.000000
vn 0.000002 1.000000 0.000000
vn 0.000000 1.000000 0.000000
vn 0.000000 1.000000 0.000000
vn 0.000002 1.000000 0.000000
vn 0.000000 -1.000000 0.000000
vn -0.000001 -1.000000 0.000000
vn -0.000001 -1.000000 0.000000
vn 0.000000 -1.000000 0.000000
vn 0.000003 -1.000000 0.000000
vn 0.000003 -1.000000 0.000000
vn -0.000004 1.000000 0.000000
vn -0.000004 1.000000 0.000000
vn -0.000000 0.000000 1.000000
vn -0.000000 0.000000 1.000000
vn 0.000000 0.000000 1.000000
vn -0.889314 0.457298 0.000000
vn 0.000000 1.000000 0.000000
vn 0.000000 1.000000 0.000000
vn -0.889314 0.457298 0.000000
vn 0.000000 0.000000 -1.000000
vn -0.000000 0.000000 -1.000000
vn -0.000000 0.000000 -1.000000
vn 0.000000 0.000000 -1.000000
vn 0.000000 -1.000000 0.000000
vn 0.000000 -1.000000 0.000000
vn 0.000000 -1.000000 0.000000
vn 0.000000 -1.000000 0.000000
vn 1.000000 0.000000 0.000000
vn 1.000000 0.000000 0.000000
vn 1.000000 0.000000 0.000000
vn 1.000000 0.000000 0.000000
vn -1.000000 0.000000 0.000000
vn -1.000000 0.000000 0.000000
vn -1.000000 0.000000 0.000000
vn -1.000000 0.000000 0.000000
vn -0.000000 0.000000 -1.000000
vn -0.000000 0.000000 -1.000000
vn 0.000000 -1.000000 0.000000
vn 0.000000 -1.000000 0.000000
vn 0.000000 0.000000 1.000000
vn 0.875163 0.483829 0.000000
vn 0.875163 0.483829 0.000000
vn 0.000000 0.000000 1.000000
vn 0.000000 0.000000 1.000000
vn 0.000000 0.000000 1.000000
vn 0.000000 0.000000 1.000000
vn 0.000000 0.000000 1.000000
vn 0.000000 0.000000 1.000000
vn 0.000000 0.000000 -1.000000
vn 0.000000 0.000000 -1.000000
vn 0.000000 0.000000 -1.000000
vn 0.000000 0.000000 -1.000000
vn -1.000000 0.000000 0.000000
vn -1.000000 0.000000 0.000000
vn -1.000000 0.000000 0.000000
vn -1.000000 0.000000 0.000000
vn -0.000000 0.000000 -1.000000
vn 0.000000 0.000000 -1.000000
vn -0.000000 0.000000 -1.000000
vn 1.000000 0.000000 0.000000
vn 1.000000 0.000000 0.000000
vn 1.000000 0.000000 0.000000
vn 1.000000 0.000000 0.000000
vn 0.000000 0.000000 1.000000
vn 0.000000 0.000000 1.000000
vn 0.000000 0.000000 1.000000
vn -0.000000 0.000000 1.000000
vn -0.000000 0.000000 1.000000
vn -0.000000 0.000000 1.000000
vn 0.000000 0.000000 1.000000
vn 0.000000 0.000000 1.000000
vn 0.000000 0.000000 1.000000
vn 0.000002 1.000000 0.000000
vn 0.000000 1.000000 0.000000
vn 0.000000 1.000000 0.000000
vn 0.000002 1.000000 0.000000
vn -0.000000 -1.000000 0.000000
vn -0.000001 -1.000000 0.000000
vn -0.000001 -1.000000 0.000000
vn -0.000000 -1.000000 0.000000
vn 0.000003 -1.000000 0.000000
vn 0.000003 -1.000000 0.000000
vn -0.000004 1.000000 0.000000
vn -0.000004 1.000000 0.000000
vn -1.000000 0.000000 0.000000
vn -1.000000 0.000000 0.000000
vn 0.000000 0.000000 -1.000000
vn 0.000000 0.000000 -1.000000
vn 0.000000 0.000000 -1.000000
vn 0.000000 0.000000 -1.000000
vn 0.000000 1.000000 0.000000
vn 0.000000 1.000000 0.000000
vn 0.000000 0.000000 1.000000
vn 0.000000 0.000000 1.000000
vn 0.000000 -1.000000 0.000000
vn 0.000000 -1.000000 0.000000
vn 1.000000 0.000000 0.000000
vn 1.000000 0.000000 0.000000
vn 1.000000 0.000000 0.000000
vn 1.000000 0.000000 0.000000
vn 0.000000 0.000000 -1.000000
vn 0.000000 0.000000 -1.000000
vn 0.000000 0.000000 -1.000000
vn 0.000000 0.000000 -1.000000
vn 0.000000 1.000000 0.000000
vn 0.000000 1.000000 0.000000
vn 0.000000 0.000000 1.000000
vn 0.000000 0.000000 1.000000
vn 0.000000 -1.000000 0.000000
vn 0.000000 -1.000000 0.000000
s 1
g fence
usemtl initialShadingGroup
f 3/87/1 13/88/2 12/89/3
s 2
f 3/1/4 12/2/5 9/3/6 5/4/7
s 3
f 22/94/8 23/95/9 10/96/10 7/97/11
s 4
f 7/47/12 10/48/13 11/49/14 1/50/15
s 5
f 2/11/16 8/12/17 24/13/18 25/14/19
s 6
f 7/9/20 1/10/21 21/8/22 22/7/23
s 3
f 23/95/9 24/100/24 8/101/25 10/96/10
s 4
f 11/49/14 10/48/13 8/51/26 2/52/27
s 1
f 12/89/3 13/88/2 4/92/28
s 2
f 9/19/6 12/20/5 4/18/29 6/17/30
s 7
f 1/107/31 11/108/32 26/109/33 21/110/34
f 25/111/35 26/109/33 11/108/32 2/112/36
s 3
f 5/102/37 9/105/38 14/103/39
f 9/105/38 6/106/40 14/103/39
s 6
f 16/5/41 15/6/42 3/1/43 5/4/44
s 3
f 5/102/37 14/103/39 17/99/45 16/98/46
f 14/103/39 6/106/40 18/104/47 17/99/45
s 5
f 19/16/48 18/15/49 6/17/50 4/18/51
s 1
f 4/92/28 13/88/2 20/91/52 19/93/53
f 15/90/54 20/91/52 13/88/2 3/87/1
s 6
f 22/7/23 21/8/22 15/6/42 16/5/41
s 3
f 16/98/46 17/99/45 23/95/9 22/94/8
f 17/99/45 18/104/47 24/100/24 23/95/9
s 5
f 25/14/19 24/13/18 18/15/49 19/16/48
s 9
f 27/113/55 28/114/56 29/115/57 30/116/58
f 31/117/59 29/115/57 28/114/56 32/118/60
s 10
f 19/53/61 20/54/62 28/55/63 27/56/64
s 11
f 26/67/65 25/68/66 30/69/67 29/70/68
f 21/73/69 26/67/65 29/70/68 31/74/70
s 10
f 20/54/62 15/57/71 32/58/72 28/55/63
s 12
f 35/127/73 45/128/74 44/129/75
s 13
f 35/21/76 44/22/77 41/23/78 37/24/79
s 14
f 54/134/80 55/135/81 42/136/82 39/137/83
s 15
f 39/81/84 42/82/85 43/83/86 33/84/87
s 16
f 34/33/88 40/34/89 56/35/90 57/36/91
s 17
f 39/29/92 33/30/93 53/28/94 54/27/95
s 14
f 55/135/81 56/140/96 40/141/97 42/136/82
s 15
f 43/83/86 42/82/85 40/85/98 34/86/99
s 12
f 44/129/75 45/128/74 36/132/100
s 13
f 41/41/78 44/42/77 36/40/101 38/39/102
s 18
f 33/147/103 43/148/104 58/149/105 53/150/106
f 57/151/107 58/149/105 43/148/104 34/152/108
s 14
f 37/142/109 41/145/110 46/143/111
f 41/145/110 38/146/112 46/143/111
s 17
f 48/25/113 47/26/114 35/21/115 37/24/116
s 14
f 37/142/109 46/143/111 49/139/117 48/138/118
f 46/143/111 38/146/112 50/144/119 49/139/117
s 16
f 51/38/120 50/37/121 38/39/122 36/40/123
s 12
f 36/132/100 45/128/74 52/131/124 51/133/125
f 47/130/126 52/131/124 45/128/74 35/127/73
s 17
f 54/27/95 53/28/94 47/26/114 48/25/113
s 14
f 48/138/118 49/139/117 55/135/81 54/134/80
f 49/139/117 50/144/119 56/140/96 55/135/81
s 16
f 57/36/91 56/35/90 50/37/121 51/38/120
s 20
f 59/121/127 60/123/128 61/124/129 62/122/130
f 63/125/131 61/124/129 60/123/128 64/126/132
s 21
f 51/61/133 52/63/134 60/64/135 59/62/136
s 22
f 58/77/137 57/76/138 62/75/139 61/78/140
f 53/79/141 58/77/137 61/78/140 63/80/142
s 21
f 52/63/134 47/65/143 64/66/144 60/64/135
s 17
f 47/26/114 53/28/94 63/31/145 64/32/146
s off
f 57/153/147 51/154/148 15/155/149 21/156/150
s 21
f 51/61/133 59/62/136 32/58/151 15/57/152
s 20
f 59/121/127 62/122/130 31/117/153 32/118/154
s 22
f 62/75/139 57/76/138 21/73/155 31/74/156
s off
f 65/43/157 66/44/158 67/45/159 68/46/160
f 25/157/161 19/158/162 66/159/163 65/160/164
s 10
f 19/53/61 27/56/64 67/59/165 66/60/166
s 9
f 27/113/55 30/116/58 68/119/167 67/120/168
s 11
f 30/69/67 25/68/66 65/71/169 68/72/170
