# This file uses centimeters as units for non-parametric coordinates.

mtllib Bush1.mtl
g default
v -0.013958 0.001910 0.000609
v 0.376172 0.001910 0.301550
v -0.183868 0.001910 0.454090
v -0.521201 0.001910 0.000609
v -0.148413 0.001910 -0.465421
v 0.444143 0.001910 -0.241257
v 0.091530 0.419230 0.348218
v -0.327281 0.392279 0.233510
v -0.282776 0.392279 -0.198705
v 0.091530 0.392279 -0.320326
v 0.322867 0.392278 -0.001922
v -0.011924 0.599190 -0.001922
v -0.072733 0.001910 0.185231
v 0.147278 0.001910 0.113744
v 0.113921 0.001910 0.450184
v 0.483086 0.001910 0.000609
v 0.192950 0.001910 -0.141555
v -0.208709 0.001910 -0.001922
v -0.483961 0.001910 0.230640
v -0.072733 0.001910 -0.189073
v -0.434441 0.001910 -0.289325
v 0.113921 0.001910 -0.456348
v 0.454456 0.224881 0.120799
v 0.454456 0.224881 -0.126334
v -0.012370 0.224881 0.438397
v 0.276144 0.224881 0.320739
v -0.434376 0.224881 0.162088
v -0.300883 0.197589 0.362027
v -0.300883 0.224881 -0.304306
v -0.505254 0.224881 -0.145399
v 0.276144 0.224881 -0.326273
v -0.012370 0.224881 -0.397097
v 0.276277 0.421669 0.211346
v -0.110318 0.421669 0.384766
v -0.330329 0.421669 -0.001922
v -0.110318 0.443045 -0.329858
v 0.230691 0.421669 -0.168285
v 0.048885 0.540568 0.185231
v 0.184861 0.543287 -0.001922
v -0.108531 0.579184 0.147352
v -0.171126 0.516557 -0.117587
v 0.048885 0.543289 -0.189073
vn 0.000000 -1.000000 0.000000
vn 0.000000 -1.000000 0.000000
vn 0.000000 -1.000000 0.000000
vn 0.000000 -1.000000 0.000000
vn 0.000000 -1.000000 0.000000
vn 0.000000 -1.000000 0.000000
vn 0.000000 -1.000000 0.000000
vn 0.000000 -1.000000 0.000000
vn 0.000000 -1.000000 0.000000
vn 0.000000 -1.000000 0.000000
vn 0.000000 -1.000000 0.000000
vn 0.000000 -1.000000 0.000000
vn 0.000000 -1.000000 0.000000
vn 0.000000 -1.000000 0.000000
vn 0.000000 -1.000000 0.000000
vn 0.940625 -0.059402 0.334209
vn 0.940625 -0.059402 0.334209
vn 0.940625 -0.059402 0.334209
vn 0.013100 0.060200 0.998100
vn 0.013100 0.060200 0.998100
vn 0.013100 0.060200 0.998100
vn -0.953334 0.259509 0.154305
vn -0.953334 0.259509 0.154305
vn -0.953334 0.259509 0.154305
vn -0.507798 0.248699 -0.824797
vn -0.507798 0.248699 -0.824797
vn -0.507798 0.248699 -0.824797
vn 0.543513 0.091302 -0.834420
vn 0.543513 0.091302 -0.834420
vn 0.543513 0.091302 -0.834420
vn 0.719146 0.267417 0.641341
vn 0.719146 0.267417 0.641341
vn 0.719146 0.267417 0.641341
vn -0.270212 0.272812 0.923341
vn -0.270212 0.272812 0.923341
vn -0.270212 0.272812 0.923341
vn -0.952320 0.211905 0.219505
vn -0.952320 0.211905 0.219505
vn -0.952320 0.211905 0.219505
vn -0.276210 0.431615 -0.858730
vn -0.276210 0.431615 -0.858730
vn -0.276210 0.431615 -0.858730
vn 0.713130 0.294813 -0.636027
vn 0.713130 0.294813 -0.636027
vn 0.713130 0.294813 -0.636027
vn 0.357001 0.791601 0.495901
vn 0.357001 0.791601 0.495901
vn 0.357001 0.791601 0.495901
vn -0.444902 0.747803 0.492802
vn -0.444902 0.747803 0.492802
vn -0.444902 0.747803 0.492802
vn -0.627135 0.733840 -0.261114
vn -0.627135 0.733840 -0.261114
vn -0.627135 0.733840 -0.261114
vn 0.203098 0.674392 -0.709892
vn 0.203098 0.674392 -0.709892
vn 0.203098 0.674392 -0.709892
vn 0.709013 0.647912 -0.278405
vn 0.709013 0.647912 -0.278405
vn 0.709013 0.647912 -0.278405
vn 0.268010 0.943536 -0.194707
vn 0.268010 0.943536 -0.194707
vn 0.268010 0.943536 -0.194707
vn 0.541821 0.742629 -0.393615
vn 0.541821 0.742629 -0.393615
vn 0.541821 0.742629 -0.393615
vn 0.497703 0.644804 -0.580103
vn 0.497703 0.644804 -0.580103
vn 0.497703 0.644804 -0.580103
vn -0.222790 0.911860 -0.344785
vn -0.222790 0.911860 -0.344785
vn -0.222790 0.911860 -0.344785
vn -0.231397 0.896887 -0.376895
vn -0.231397 0.896887 -0.376895
vn -0.231397 0.896887 -0.376895
vn -0.529774 0.742963 -0.409080
vn -0.529774 0.742963 -0.409080
vn -0.529774 0.742963 -0.409080
vn -0.383606 0.914915 -0.125602
vn -0.383606 0.914915 -0.125602
vn -0.383606 0.914915 -0.125602
vn -0.546795 0.834493 -0.068099
vn -0.546795 0.834493 -0.068099
vn -0.546795 0.834493 -0.068099
vn -0.621809 0.776112 0.104902
vn -0.621809 0.776112 0.104902
vn -0.621809 0.776112 0.104902
vn 0.175896 0.954277 0.241694
vn 0.175896 0.954277 0.241694
vn 0.175896 0.954277 0.241694
vn 0.071102 0.830928 0.551818
vn 0.071102 0.830928 0.551818
vn 0.071102 0.830928 0.551818
vn 0.113702 0.810915 0.574011
vn 0.113702 0.810915 0.574011
vn 0.113702 0.810915 0.574011
vn 0.267305 0.940917 0.207904
vn 0.267305 0.940917 0.207904
vn 0.267305 0.940917 0.207904
vn 0.411921 0.856244 0.311716
vn 0.411921 0.856244 0.311716
vn 0.411921 0.856244 0.311716
vn 0.736500 0.673000 0.068100
vn 0.736500 0.673000 0.068100
vn 0.736500 0.673000 0.068100
vn 0.665785 0.704984 -0.244394
vn 0.665785 0.704984 -0.244394
vn 0.665785 0.704984 -0.244394
vn 0.609487 0.577188 -0.543489
vn 0.609487 0.577188 -0.543489
vn 0.609487 0.577188 -0.543489
vn 0.527203 0.602704 -0.599004
vn 0.527203 0.602704 -0.599004
vn 0.527203 0.602704 -0.599004
vn 0.130703 0.345107 -0.929418
vn 0.130703 0.345107 -0.929418
vn 0.130703 0.345107 -0.929418
vn -0.302503 0.154101 -0.940609
vn -0.302503 0.154101 -0.940609
vn -0.302503 0.154101 -0.940609
vn -0.618368 0.466076 -0.632767
vn -0.618368 0.466076 -0.632767
vn -0.618368 0.466076 -0.632767
vn -0.619600 0.740500 -0.260300
vn -0.619600 0.740500 -0.260300
vn -0.619600 0.740500 -0.260300
vn -0.797390 0.574793 0.183798
vn -0.797390 0.574793 0.183798
vn -0.797390 0.574793 0.183798
vn -0.854228 0.514417 0.075302
vn -0.854228 0.514417 0.075302
vn -0.854228 0.514417 0.075302
vn -0.559606 0.402404 0.724508
vn -0.559606 0.402404 0.724508
vn -0.559606 0.402404 0.724508
vn -0.265105 0.128502 0.955618
vn -0.265105 0.128502 0.955618
vn -0.265105 0.128502 0.955618
vn 0.171694 0.337688 0.925466
vn 0.171694 0.337688 0.925466
vn 0.171694 0.337688 0.925466
vn 0.539809 0.408706 0.735912
vn 0.539809 0.408706 0.735912
vn 0.539809 0.408706 0.735912
vn 0.700092 0.346596 0.624293
vn 0.700092 0.346596 0.624293
vn 0.700092 0.346596 0.624293
vn 0.756229 0.649925 0.075603
vn 0.756229 0.649925 0.075603
vn 0.756229 0.649925 0.075603
vn 0.228492 0.285090 -0.930868
vn 0.228492 0.285090 -0.930868
vn 0.228492 0.285090 -0.930868
vn 0.221911 0.365818 -0.903844
vn 0.221911 0.365818 -0.903844
vn 0.221911 0.365818 -0.903844
vn 0.033200 0.274200 -0.961100
vn 0.033200 0.274200 -0.961100
vn 0.033200 0.274200 -0.961100
vn -0.534593 0.491494 -0.687491
vn -0.534593 0.491494 -0.687491
vn -0.534593 0.491494 -0.687491
vn -0.585535 0.300118 -0.753045
vn -0.585535 0.300118 -0.753045
vn -0.585535 0.300118 -0.753045
vn -0.951279 -0.118397 -0.284694
vn -0.951279 -0.118397 -0.284694
vn -0.951279 -0.118397 -0.284694
vn -0.785295 0.263398 0.560297
vn -0.785295 0.263398 0.560297
vn -0.785295 0.263398 0.560297
vn -0.760280 0.339391 0.553885
vn -0.760280 0.339391 0.553885
vn -0.760280 0.339391 0.553885
vn -0.597106 0.020200 0.801908
vn -0.597106 0.020200 0.801908
vn -0.597106 0.020200 0.801908
vn 0.368210 0.222106 0.902824
vn 0.368210 0.222106 0.902824
vn 0.368210 0.222106 0.902824
vn 0.365217 0.254212 0.895541
vn 0.365217 0.254212 0.895541
vn 0.365217 0.254212 0.895541
vn 0.487902 0.144801 0.860804
vn 0.487902 0.144801 0.860804
vn 0.487902 0.144801 0.860804
vn 0.786187 0.617989 0.000000
vn 0.786187 0.617989 0.000000
vn 0.786187 0.617989 0.000000
vn 0.991852 0.127394 0.000000
vn 0.991852 0.127394 0.000000
vn 0.991852 0.127394 0.000000
vn 0.986630 0.036201 -0.158905
vn 0.986630 0.036201 -0.158905
vn 0.986630 0.036201 -0.158905
vn 0.000000 -1.000000 0.000000
vn 0.000000 -1.000000 0.000000
vn 0.000000 -1.000000 0.000000
vn 0.000000 -1.000000 0.000000
vn 0.000000 -1.000000 0.000000
vn 0.000000 -1.000000 0.000000
vn 0.000000 -1.000000 0.000000
vn 0.000000 -1.000000 0.000000
vn 0.000000 -1.000000 0.000000
vn 0.000000 -1.000000 0.000000
vn 0.000000 -1.000000 0.000000
vn 0.000000 -1.000000 0.000000
vn 0.000000 -1.000000 0.000000
vn 0.000000 -1.000000 0.000000
vn 0.000000 -1.000000 0.000000
vn 0.000000 -1.000000 0.000000
vn 0.000000 -1.000000 0.000000
vn 0.000000 -1.000000 0.000000
vn 0.000000 -1.000000 0.000000
vn 0.000000 -1.000000 0.000000
vn 0.000000 -1.000000 0.000000
vn 0.000000 -1.000000 0.000000
vn 0.000000 -1.000000 0.000000
vn 0.000000 -1.000000 0.000000
vn 0.000000 -1.000000 0.000000
vn 0.000000 -1.000000 0.000000
vn 0.000000 -1.000000 0.000000
vn 0.000000 -1.000000 0.000000
vn 0.000000 -1.000000 0.000000
vn 0.000000 -1.000000 0.000000
vn 0.000000 -1.000000 0.000000
vn 0.000000 -1.000000 0.000000
vn 0.000000 -1.000000 0.000000
vn 0.000000 -1.000000 0.000000
vn 0.000000 -1.000000 0.000000
vn 0.000000 -1.000000 0.000000
vn 0.000000 -1.000000 0.000000
vn 0.000000 -1.000000 0.000000
vn 0.000000 -1.000000 0.000000
vn 0.000000 -1.000000 0.000000
vn 0.000000 -1.000000 0.000000
vn 0.000000 -1.000000 0.000000
vn 0.000000 -1.000000 0.000000
vn 0.000000 -1.000000 0.000000
vn 0.000000 -1.000000 0.000000
s off
g Peter_sBush_Test_12_8_17:Mesh
usemtl initialShadingGroup
f 1//1 14//2 13//3
f 2//4 14//5 16//6
f 1//7 13//8 18//9
f 1//10 18//11 20//12
f 1//13 20//14 17//15
f 2//16 16//17 23//18
f 3//19 15//20 25//21
f 4//22 19//23 27//24
f 5//25 21//26 29//27
f 6//28 22//29 31//30
f 2//31 23//32 26//33
f 3//34 25//35 28//36
f 4//37 27//38 30//39
f 5//40 29//41 32//42
f 6//43 31//44 24//45
f 7//46 33//47 38//48
f 8//49 34//50 40//51
f 9//52 35//53 41//54
f 10//55 36//56 42//57
f 11//58 37//59 39//60
f 39//61 42//62 12//63
f 39//64 37//65 42//66
f 37//67 10//68 42//69
f 42//70 41//71 12//72
f 42//73 36//74 41//75
f 36//76 9//77 41//78
f 41//79 40//80 12//81
f 41//82 35//83 40//84
f 35//85 8//86 40//87
f 40//88 38//89 12//90
f 40//91 34//92 38//93
f 34//94 7//95 38//96
f 38//97 39//98 12//99
f 38//100 33//101 39//102
f 33//103 11//104 39//105
f 24//106 37//107 11//108
f 24//109 31//110 37//111
f 31//112 10//113 37//114
f 32//115 36//116 10//117
f 32//118 29//119 36//120
f 29//121 9//122 36//123
f 30//124 35//125 9//126
f 30//127 27//128 35//129
f 27//130 8//131 35//132
f 28//133 34//134 8//135
f 28//136 25//137 34//138
f 25//139 7//140 34//141
f 26//142 33//143 7//144
f 26//145 23//146 33//147
f 23//148 11//149 33//150
f 31//151 32//152 10//153
f 31//154 22//155 32//156
f 22//157 5//158 32//159
f 29//160 30//161 9//162
f 29//163 21//164 30//165
f 21//166 4//167 30//168
f 27//169 28//170 8//171
f 27//172 19//173 28//174
f 19//175 3//176 28//177
f 25//178 26//179 7//180
f 25//181 15//182 26//183
f 15//184 2//185 26//186
f 23//187 24//188 11//189
f 23//190 16//191 24//192
f 16//193 6//194 24//195
f 17//196 22//197 6//198
f 17//199 20//200 22//201
f 20//202 5//203 22//204
f 20//205 21//206 5//207
f 20//208 18//209 21//210
f 18//211 4//212 21//213
f 18//214 19//215 4//216
f 18//217 13//218 19//219
f 13//220 3//221 19//222
f 16//223 17//224 6//225
f 16//226 14//227 17//228
f 14//229 1//230 17//231
f 13//232 15//233 3//234
f 13//235 14//236 15//237
f 14//238 2//239 15//240
