# This file uses centimeters as units for non-parametric coordinates.

mtllib stump.mtl
g default
v 0.828305 -1.000000 0.560278
v 1.111245 -1.000000 -0.152505
v 0.943237 -1.000000 -0.722123
v 0.276896 -1.000000 -0.960900
v -0.399272 -1.000000 -1.180313
v -0.886788 -1.000000 -0.800451
v -0.999436 -1.000000 0.033591
v -0.796501 -1.000000 0.640081
v -0.386972 -1.000000 1.094961
v 0.340789 -1.000000 0.940140
v 0.828305 1.000000 0.560278
v 0.999436 1.000000 -0.033591
v 0.788816 1.000000 -0.614629
v 0.276896 1.000000 -0.960900
v -0.340789 1.000000 -0.940140
v -0.828305 1.000000 -0.560278
v -0.999436 1.000000 0.033591
v -0.788816 1.000000 0.614629
v -0.276896 1.000000 0.960900
v 0.340789 1.000000 0.940140
v 0.000000 -1.000000 0.000000
v 0.000000 0.784523 0.000000
v 0.889330 -1.000000 -1.860445
v 0.684028 -1.000000 -3.478040
v 0.684028 -0.934431 -3.478040
v 0.889330 -0.363041 -1.860445
v 0.134832 -1.000000 -2.162044
v 0.238012 -0.364850 -2.048131
v 0.606460 -1.000000 -1.941957
v 0.606460 0.067252 -1.941957
v -1.747965 -1.000000 -0.802450
v -2.885238 -1.000000 -0.138774
v -2.885238 -0.879311 -0.138774
v -1.773954 -0.303552 -0.606769
v -1.449980 -1.000000 0.438635
v -1.568001 -0.072275 0.268876
v -1.757971 0.227919 -0.127573
v -1.614803 -1.000000 -0.173157
v 0.911563 -0.997343 0.879881
v 1.591636 -0.997343 0.356077
v 1.443202 -0.158183 0.475468
v 0.879131 0.388550 0.782103
v 0.049256 -0.999715 1.618953
v 0.582798 -0.997343 1.664742
v 0.525160 0.192464 1.497428
v 0.194001 -0.174019 1.678051
v 2.230977 -1.012660 0.822968
v 2.255584 -1.012660 0.731502
v 2.267056 -0.957008 0.753971
v 2.241128 -0.957008 0.847775
v 0.206063 -0.999164 2.149393
v 0.063461 -0.980174 2.920927
v 0.067923 -0.841704 2.862211
v 0.276115 -0.467204 2.107751
v 0.850360 -0.959339 1.915657
v 0.878316 -0.539516 1.871119
v 0.455518 -0.308286 2.175346
v 0.516147 -0.984535 2.081410
vt 0.742789 0.301210
vt 0.742789 0.235865
vt 0.965131 0.232878
vt 0.965131 0.298223
vt 0.742789 0.145934
vt 0.820214 0.135804
vt 0.813399 0.400694
vt 0.742789 0.394226
vt 0.742789 0.001926
vt 0.756206 0.001926
vt 0.965131 0.192493
vt 0.879298 0.119320
vt 0.965131 0.363567
vt 0.861436 0.435180
vt 0.742789 0.501484
vt 0.750078 0.501484
vt 0.494232 0.718683
vt 0.494232 0.784027
vt 0.404457 0.785871
vt 0.426256 0.721775
vt 0.494232 0.849372
vt 0.363715 0.827326
vt 0.348788 0.818833
vt 0.323082 0.763118
vt 0.494232 0.678297
vt 0.365475 0.651203
vt 0.289488 0.885366
vt 0.274094 0.888057
vt 0.276410 0.767727
vt 0.121832 0.806977
vt 0.121517 0.652906
vt 0.261574 0.651203
vt 0.261695 0.657390
vt 0.267611 0.651203
vt 0.267958 0.657390
vt 0.088103 0.283454
vt 0.144679 0.219676
vt 0.210024 0.309615
vt 0.057162 0.212098
vt 0.148085 0.183118
vt 0.210024 0.198444
vt 0.084082 0.349353
vt 0.001992 0.147706
vt 0.008029 0.139079
vt 0.212182 0.113542
vt 0.291952 0.209834
vt 0.144679 0.399554
vt 0.193724 0.077181
vt 0.234934 0.072519
vt 0.266211 0.138542
vt 0.317521 0.272892
vt 0.073066 0.489605
vt 0.046590 0.470369
vt 0.207037 0.448103
vt 0.314053 0.001926
vt 0.269918 0.077161
vt 0.315753 0.343969
vt 0.114020 0.530475
vt 0.006763 0.647211
vt 0.272381 0.426872
vt 0.378188 0.318704
vt 0.372236 0.388891
vt 0.506320 0.433429
vt 0.362313 0.459707
vt 0.671441 0.672435
vt 0.711827 0.728020
vt 0.606097 0.762374
vt 0.711827 0.796728
vt 0.606097 0.651203
vt 0.671441 0.852313
vt 0.540752 0.672435
vt 0.769531 0.923128
vt 0.743054 0.942364
vt 0.606097 0.873545
vt 0.500367 0.728020
vt 0.540752 0.852313
vt 0.500367 0.796728
vt 0.735154 0.149278
vt 0.735154 0.215178
vt 0.512812 0.209793
vt 0.512812 0.141086
vt 0.735154 0.336193
vt 0.664343 0.336193
vt 0.641569 0.071069
vt 0.734859 0.077923
vt 0.735154 0.513036
vt 0.727865 0.513036
vt 0.730375 0.010748
vt 0.736562 0.013531
vt 0.616507 0.355429
vt 0.580788 0.060391
vt 0.730375 0.001926
vt 0.775666 0.776441
vt 0.775666 0.713383
vt 0.998008 0.723224
vt 0.998008 0.778810
vt 0.775698 0.642091
vt 0.867491 0.630430
vt 0.878802 0.844467
vt 0.775666 0.822253
vt 0.775759 0.580710
vt 0.834898 0.582408
vt 0.998008 0.847517
vt 0.912175 0.893099
vt 0.775666 0.936977
vt 0.789083 0.936977
vt 0.777870 0.505475
vt 0.793264 0.511443
vt 0.908233 0.636762
vt 0.852565 0.568547
vt 0.013440 0.965039
vt 0.001992 0.810968
vt 0.115781 0.914142
vt 0.119377 0.960814
vn 0.924273 -0.286640 0.252106
vn 0.924273 -0.286640 0.252106
vn 0.924273 -0.286640 0.252106
vn 0.924273 -0.286640 0.252106
vn 0.946802 0.080651 -0.311548
vn 0.946802 0.080651 -0.311548
vn 0.946802 0.080651 -0.311548
vn 0.946802 0.080651 -0.311548
vn 0.992042 0.000000 -0.125908
vn 0.992042 0.000000 -0.125908
vn 0.992042 0.000000 -0.125908
vn 0.992042 0.000000 -0.125908
vn -0.908744 0.193892 -0.369580
vn -0.908744 0.193892 -0.369580
vn -0.908744 0.193892 -0.369580
vn -0.908744 0.193892 -0.369580
vn -0.610763 0.111990 -0.783854
vn -0.610763 0.111990 -0.783854
vn -0.610763 0.111990 -0.783854
vn -0.610763 0.111990 -0.783854
vn -0.479745 0.189877 -0.856617
vn -0.479745 0.189877 -0.856617
vn -0.479745 0.189877 -0.856617
vn -0.479745 0.189877 -0.856617
vn -0.363110 0.108958 0.925354
vn -0.363110 0.108958 0.925354
vn -0.363110 0.108958 0.925354
vn -0.363110 0.108958 0.925354
vn -0.655328 0.049351 0.753730
vn -0.655328 0.049351 0.753730
vn -0.655328 0.049351 0.753730
vn -0.655328 0.049351 0.753730
vn -0.975439 0.077552 -0.206165
vn -0.975439 0.077552 -0.206165
vn -0.975439 0.077552 -0.206165
vn -0.975439 0.077552 -0.206165
vn 0.773135 0.071657 0.630181
vn 0.773135 0.071657 0.630181
vn 0.773135 0.071657 0.630181
vn 0.773135 0.071657 0.630181
vn 0.000000 -1.000000 0.000000
vn 0.000000 -1.000000 0.000000
vn 0.000000 -1.000000 0.000000
vn 0.000000 -1.000000 -0.000000
vn 0.000000 -1.000000 -0.000000
vn 0.000000 -1.000000 -0.000000
vn 0.000000 -1.000000 0.000000
vn 0.000000 -1.000000 0.000000
vn 0.000000 -1.000000 0.000000
vn 0.000000 -1.000000 0.000000
vn 0.000000 -1.000000 0.000000
vn 0.000000 -1.000000 0.000000
vn 0.000000 -1.000000 0.000000
vn 0.000000 -1.000000 0.000000
vn 0.000000 -1.000000 0.000000
vn 0.000000 -1.000000 -0.000000
vn 0.000000 -1.000000 -0.000000
vn 0.000000 -1.000000 -0.000000
vn 0.000000 -1.000000 -0.000000
vn 0.000000 -1.000000 -0.000000
vn 0.000000 -1.000000 -0.000000
vn 0.000000 -1.000000 0.000000
vn 0.000000 -1.000000 0.000000
vn 0.000000 -1.000000 0.000000
vn 0.000000 -1.000000 0.000000
vn 0.000000 -1.000000 0.000000
vn 0.000000 -1.000000 0.000000
vn 0.000000 -1.000000 0.000000
vn 0.000000 -1.000000 0.000000
vn 0.000000 -1.000000 0.000000
vn -0.212326 0.975282 -0.061184
vn -0.212326 0.975282 -0.061184
vn -0.212326 0.975282 -0.061184
vn -0.207738 0.975282 0.075303
vn -0.207738 0.975282 0.075303
vn -0.207739 0.975282 0.075303
vn -0.123802 0.975282 0.183027
vn -0.123802 0.975282 0.183027
vn -0.123802 0.975282 0.183027
vn 0.007423 0.975282 0.220841
vn 0.007423 0.975282 0.220841
vn 0.007423 0.975282 0.220841
vn 0.135812 0.975282 0.174301
vn 0.135812 0.975282 0.174301
vn 0.135812 0.975282 0.174301
vn 0.212326 0.975282 0.061184
vn 0.212326 0.975282 0.061184
vn 0.212326 0.975282 0.061184
vn 0.207738 0.975282 -0.075303
vn 0.207738 0.975282 -0.075303
vn 0.207738 0.975282 -0.075303
vn 0.123802 0.975282 -0.183027
vn 0.123802 0.975282 -0.183027
vn 0.123802 0.975282 -0.183027
vn -0.007422 0.975282 -0.220841
vn -0.007422 0.975282 -0.220841
vn -0.007422 0.975282 -0.220841
vn -0.135812 0.975282 -0.174301
vn -0.135812 0.975282 -0.174301
vn -0.135812 0.975282 -0.174301
vn 0.000000 -1.000000 0.000000
vn 0.000000 -1.000000 0.000000
vn 0.000000 -1.000000 0.000000
vn 0.605437 0.609672 -0.511611
vn 0.605437 0.609672 -0.511611
vn 0.605437 0.609672 -0.511611
vn 0.605437 0.609672 -0.511611
vn 0.998155 0.059033 -0.014237
vn 0.998155 0.059033 -0.014237
vn 0.998155 0.059033 -0.014237
vn 0.998155 0.059033 -0.014237
vn 0.000000 -1.000000 0.000000
vn 0.000000 -1.000000 0.000000
vn 0.000000 -1.000000 0.000000
vn -0.840586 0.122470 -0.527652
vn -0.840586 0.122470 -0.527652
vn -0.840586 0.122470 -0.527652
vn -0.840586 0.122470 -0.527652
vn -0.202793 0.613651 -0.763091
vn -0.202793 0.613651 -0.763091
vn -0.202793 0.613651 -0.763091
vn -0.202793 0.613651 -0.763091
vn 0.000000 -1.000000 0.000000
vn 0.000000 -1.000000 0.000000
vn 0.000000 -1.000000 0.000000
vn 0.000000 -1.000000 0.000000
vn 0.000000 -1.000000 0.000000
vn 0.000000 -1.000000 0.000000
vn 0.000000 -1.000000 0.000000
vn 0.000000 -1.000000 0.000000
vn 0.825996 0.490333 -0.278036
vn 0.825996 0.490333 -0.278036
vn 0.825996 0.490333 -0.278036
vn -0.622223 0.640990 -0.449411
vn -0.622223 0.640990 -0.449411
vn -0.622223 0.640990 -0.449411
vn -0.000000 -1.000000 0.000000
vn -0.000000 -1.000000 0.000000
vn -0.000000 -1.000000 0.000000
vn -0.000000 -1.000000 0.000000
vn -0.551514 0.567677 -0.611209
vn -0.551514 0.567677 -0.611209
vn -0.551514 0.567677 -0.611209
vn -0.089036 0.159981 -0.983097
vn -0.089036 0.159981 -0.983097
vn -0.089036 0.159981 -0.983097
vn -0.089036 0.159981 -0.983097
vn -0.000000 -1.000000 0.000000
vn -0.000000 -1.000000 0.000000
vn -0.000000 -1.000000 0.000000
vn -0.000000 -1.000000 0.000000
vn -0.386810 0.046830 0.920970
vn -0.386810 0.046830 0.920970
vn -0.386810 0.046830 0.920969
vn -0.386810 0.046830 0.920970
vn -0.530731 0.533675 0.658419
vn -0.530731 0.533675 0.658419
vn -0.530731 0.533675 0.658419
vn -0.741405 0.493018 0.455249
vn -0.741405 0.493018 0.455249
vn -0.741405 0.493018 0.455249
vn -0.741405 0.493018 0.455249
vn -0.688571 0.605300 -0.399351
vn -0.688571 0.605300 -0.399351
vn -0.688571 0.605300 -0.399351
vn -0.688571 0.605300 -0.399351
vn 0.000000 -1.000000 0.000000
vn 0.000000 -1.000000 0.000000
vn 0.000000 -1.000000 0.000000
vn 0.000000 -1.000000 0.000000
vn 0.000000 -1.000000 0.000000
vn 0.000000 -1.000000 0.000000
vn 0.004397 -0.999985 0.003424
vn 0.004397 -0.999985 0.003424
vn 0.004397 -0.999985 0.003424
vn 0.004397 -0.999985 0.003424
vn 0.800030 0.122627 -0.587295
vn 0.800030 0.122627 -0.587295
vn 0.800030 0.122627 -0.587295
vn 0.800030 0.122627 -0.587295
vn 0.813661 0.401177 0.420729
vn 0.813661 0.401177 0.420729
vn 0.813661 0.401177 0.420729
vn 0.813661 0.401177 0.420729
vn 0.001991 -0.999997 0.001275
vn 0.001991 -0.999997 0.001275
vn 0.001991 -0.999997 0.001275
vn 0.001991 -0.999997 0.001275
vn -0.027096 0.534380 0.844810
vn -0.027096 0.534380 0.844810
vn -0.027096 0.534380 0.844810
vn -0.027096 0.534380 0.844810
vn -0.763943 0.085859 0.639546
vn -0.763943 0.085859 0.639546
vn -0.763943 0.085859 0.639546
vn -0.763943 0.085859 0.639546
vn 0.005027 -0.999981 0.003523
vn 0.005027 -0.999981 0.003523
vn 0.005027 -0.999981 0.003523
vn 0.005027 -0.999981 0.003523
vn 0.672981 0.438574 0.595609
vn 0.672981 0.438574 0.595609
vn 0.672981 0.438574 0.595609
vn 0.672981 0.438574 0.595609
vn -0.013043 -0.999803 -0.014939
vn -0.013043 -0.999803 -0.014939
vn -0.013043 -0.999803 -0.014939
vn -0.013043 -0.999803 -0.014939
vn 0.487073 0.208988 -0.847988
vn 0.487073 0.208988 -0.847988
vn 0.487073 0.208988 -0.847988
vn 0.487073 0.208988 -0.847988
vn 0.695794 0.716728 0.046596
vn 0.695794 0.716728 0.046596
vn 0.695794 0.716728 0.046596
vn 0.695794 0.716728 0.046596
vn 0.022566 0.050890 0.998449
vn 0.022566 0.050890 0.998449
vn 0.022566 0.050890 0.998449
vn 0.022566 0.050890 0.998449
vn 0.054677 -0.997902 0.034667
vn 0.054677 -0.997902 0.034667
vn 0.054677 -0.997902 0.034667
vn -0.574775 0.662019 0.481003
vn -0.574775 0.662019 0.481003
vn -0.574775 0.662019 0.481003
vn -0.574775 0.662019 0.481003
vn -0.948561 0.146465 0.280679
vn -0.948561 0.146465 0.280679
vn -0.948561 0.146465 0.280679
vn -0.948561 0.146465 0.280679
vn 0.105627 -0.992464 0.062112
vn 0.105627 -0.992464 0.062112
vn 0.105627 -0.992464 0.062112
vn 0.999500 0.004940 0.031243
vn 0.999500 0.004940 0.031243
vn 0.999500 0.004940 0.031243
vn 0.999500 0.004940 0.031243
vn 0.663771 0.568419 0.486115
vn 0.663771 0.568419 0.486116
vn 0.663771 0.568419 0.486116
vn 0.663771 0.568419 0.486116
vn -0.687774 0.707729 0.161514
vn -0.687774 0.707729 0.161514
vn -0.687774 0.707729 0.161514
vn 0.666397 0.357969 0.654044
vn 0.666397 0.357969 0.654044
vn 0.666397 0.357969 0.654044
vn 0.020466 -0.999717 0.012153
vn 0.020466 -0.999717 0.012153
vn 0.020466 -0.999717 0.012153
vn 0.020466 -0.999717 0.012153
vn 0.100297 -0.994002 0.043603
vn 0.100297 -0.994002 0.043603
vn 0.100297 -0.994002 0.043603
vn 0.100297 -0.994002 0.043603
s off
g pCylinder2
usemtl initialShadingGroup
f 47/32/1 48/34/2 49/35/3 50/33/4
f 2/78/5 3/79/6 13/80/7 12/81/8
f 23/82/9 24/86/10 25/87/11 26/83/12
f 24/15/13 27/8/14 28/7/15 25/16/16
f 5/1/17 6/2/18 16/3/19 15/4/20
f 31/5/21 32/9/22 33/10/23 34/6/24
f 32/105/25 35/100/26 36/99/27 33/106/28
f 8/93/29 9/94/30 19/95/31 18/96/32
f 51/101/33 52/107/34 53/108/35 54/102/36
f 52/28/37 55/29/38 56/24/39 53/27/40
f 2/36/41 1/37/42 21/38/43
f 3/42/44 2/36/45 21/38/46
f 4/47/47 3/42/48 21/38/49
f 5/54/50 4/47/51 21/38/52
f 6/60/53 5/54/54 21/38/55
f 7/57/56 6/60/57 21/38/58
f 8/51/59 7/57/60 21/38/61
f 9/46/62 8/51/63 21/38/64
f 10/41/65 9/46/66 21/38/67
f 1/37/68 10/41/69 21/38/70
f 11/65/71 12/66/72 22/67/73
f 12/66/74 13/68/75 22/67/76
f 13/68/77 14/70/78 22/67/79
f 14/70/80 15/74/81 22/67/82
f 15/74/83 16/76/84 22/67/85
f 16/76/86 17/77/87 22/67/88
f 17/77/89 18/75/90 22/67/91
f 18/75/92 19/71/93 22/67/94
f 19/71/95 20/69/96 22/67/97
f 20/69/98 11/65/99 22/67/100
f 23/53/101 29/52/102 24/59/103
f 14/70/104 13/68/105 26/72/106 30/73/107
f 13/80/108 3/79/109 23/82/110 26/83/111
f 29/52/112 27/58/113 24/59/114
f 5/1/115 15/4/116 28/7/117 27/8/118
f 15/4/119 14/13/120 30/14/121 28/7/122
f 3/42/123 4/47/124 29/52/125 23/53/126
f 4/47/127 5/54/128 27/58/129 29/52/130
f 30/90/131 26/83/132 25/87/133
f 28/7/134 30/14/135 25/16/136
f 6/60/137 7/57/138 38/62/139 31/64/140
f 37/12/141 34/6/142 33/10/143
f 16/3/144 6/2/145 31/5/146 34/6/147
f 7/57/148 8/51/149 35/61/150 38/62/151
f 8/93/152 18/96/153 36/99/154 35/100/155
f 36/99/156 37/104/157 33/106/158
f 18/96/159 17/103/160 37/104/161 36/99/162
f 17/11/163 16/3/164 34/6/165 37/12/166
f 38/62/167 35/61/168 32/63/169
f 31/64/170 38/62/171 32/63/172
f 1/37/173 2/36/174 40/39/175 39/40/176
f 2/78/177 12/81/178 41/84/179 40/85/180
f 12/25/181 11/17/182 42/20/183 41/26/184
f 9/46/185 10/41/186 44/45/187 43/50/188
f 20/18/189 19/21/190 46/22/191 45/19/192
f 19/95/193 9/94/194 43/97/195 46/98/196
f 10/41/197 1/37/198 39/40/199 44/45/200
f 11/17/201 20/18/202 45/19/203 42/20/204
f 39/40/205 40/39/206 48/43/207 47/44/208
f 40/85/209 41/84/210 49/88/211 48/89/212
f 41/84/213 42/91/214 50/92/215 49/88/216
f 42/30/217 39/31/218 47/32/219 50/33/220
f 51/56/221 58/49/222 52/55/223
f 45/109/224 46/98/225 54/102/226 57/110/227
f 46/98/228 43/97/229 51/101/230 54/102/231
f 58/49/232 55/48/233 52/55/234
f 39/111/235 42/112/236 56/113/237 55/114/238
f 42/20/239 45/19/240 57/23/241 56/24/242
f 57/110/243 54/102/244 53/108/245
f 56/24/246 57/23/247 53/27/248
f 43/50/249 44/45/250 58/49/251 51/56/252
f 44/45/253 39/40/254 55/48/255 58/49/256
